<mxfile host="Electron" agent="Mozilla/5.0 (Windows NT 10.0; Win64; x64) AppleWebKit/537.36 (KHTML, like Gecko) draw.io/28.1.2 Chrome/138.0.7204.243 Electron/37.4.0 Safari/537.36" version="28.1.2" pages="3">
  <diagram name="sd" id="YVVhJ0kUeRykhdes_ym-">
    <mxGraphModel dx="786" dy="516" grid="1" gridSize="10" guides="1" tooltips="1" connect="1" arrows="1" fold="1" page="1" pageScale="1" pageWidth="1169" pageHeight="827" math="0" shadow="0">
      <root>
        <mxCell id="0" />
        <mxCell id="1" parent="0" />
        <mxCell id="2BwgFsl3VLa_b2nYBKN8-46" style="edgeStyle=orthogonalEdgeStyle;shape=connector;rounded=0;orthogonalLoop=1;jettySize=auto;html=1;exitX=0.5;exitY=1;exitDx=0;exitDy=0;labelBackgroundColor=default;strokeColor=default;fontFamily=Helvetica;fontSize=11;fontColor=default;endArrow=none;endFill=0;" parent="1" source="2BwgFsl3VLa_b2nYBKN8-1" edge="1">
          <mxGeometry relative="1" as="geometry">
            <mxPoint x="340" y="200" as="targetPoint" />
          </mxGeometry>
        </mxCell>
        <mxCell id="2BwgFsl3VLa_b2nYBKN8-1" value="Baldi Shopping&lt;div&gt;Discount&lt;/div&gt;&lt;div&gt;Calculator&lt;/div&gt;" style="rounded=0;whiteSpace=wrap;html=1;" parent="1" vertex="1">
          <mxGeometry x="280" y="120" width="120" height="60" as="geometry" />
        </mxCell>
        <mxCell id="2BwgFsl3VLa_b2nYBKN8-25" style="edgeStyle=orthogonalEdgeStyle;rounded=0;orthogonalLoop=1;jettySize=auto;html=1;exitX=0.5;exitY=0;exitDx=0;exitDy=0;endArrow=none;endFill=0;" parent="1" source="2BwgFsl3VLa_b2nYBKN8-2" edge="1">
          <mxGeometry relative="1" as="geometry">
            <mxPoint x="180" y="220" as="targetPoint" />
          </mxGeometry>
        </mxCell>
        <mxCell id="2BwgFsl3VLa_b2nYBKN8-2" value="Get total amount&lt;div&gt;to pay&lt;/div&gt;" style="rounded=0;whiteSpace=wrap;html=1;" parent="1" vertex="1">
          <mxGeometry x="120" y="240" width="120" height="60" as="geometry" />
        </mxCell>
        <mxCell id="uFCa1QzRlU-jExEB5yJH-6" style="edgeStyle=orthogonalEdgeStyle;shape=connector;rounded=0;orthogonalLoop=1;jettySize=auto;html=1;exitX=0.5;exitY=0;exitDx=0;exitDy=0;strokeColor=default;align=center;verticalAlign=middle;fontFamily=Helvetica;fontSize=11;fontColor=default;labelBackgroundColor=default;endArrow=none;endFill=0;" parent="1" source="2BwgFsl3VLa_b2nYBKN8-5" edge="1">
          <mxGeometry relative="1" as="geometry">
            <mxPoint x="260" y="440" as="targetPoint" />
          </mxGeometry>
        </mxCell>
        <mxCell id="2BwgFsl3VLa_b2nYBKN8-5" value="Round discount&lt;div&gt;to 2 dp&lt;/div&gt;" style="rounded=0;whiteSpace=wrap;html=1;" parent="1" vertex="1">
          <mxGeometry x="200" y="460" width="120" height="60" as="geometry" />
        </mxCell>
        <mxCell id="2BwgFsl3VLa_b2nYBKN8-36" style="edgeStyle=orthogonalEdgeStyle;rounded=0;orthogonalLoop=1;jettySize=auto;html=1;exitX=0.5;exitY=0;exitDx=0;exitDy=0;endArrow=none;endFill=0;" parent="1" source="2BwgFsl3VLa_b2nYBKN8-21" edge="1">
          <mxGeometry relative="1" as="geometry">
            <mxPoint x="500" y="220" as="targetPoint" />
          </mxGeometry>
        </mxCell>
        <mxCell id="2BwgFsl3VLa_b2nYBKN8-21" value="Display final&lt;div&gt;amount to pay&lt;/div&gt;" style="rounded=0;whiteSpace=wrap;html=1;" parent="1" vertex="1">
          <mxGeometry x="440" y="240" width="120" height="60" as="geometry" />
        </mxCell>
        <mxCell id="2BwgFsl3VLa_b2nYBKN8-23" value="" style="endArrow=none;html=1;rounded=0;" parent="1" edge="1">
          <mxGeometry width="50" height="50" relative="1" as="geometry">
            <mxPoint x="180" y="220" as="sourcePoint" />
            <mxPoint x="500" y="220" as="targetPoint" />
          </mxGeometry>
        </mxCell>
        <mxCell id="2BwgFsl3VLa_b2nYBKN8-47" value="Yes" style="text;html=1;strokeColor=none;fillColor=none;align=right;verticalAlign=middle;whiteSpace=wrap;rounded=0;fontSize=11;fontFamily=Helvetica;fontColor=default;spacing=2;spacingRight=3;" parent="1" vertex="1">
          <mxGeometry x="280" y="399" width="60" height="30" as="geometry" />
        </mxCell>
        <mxCell id="uFCa1QzRlU-jExEB5yJH-5" style="edgeStyle=orthogonalEdgeStyle;shape=connector;rounded=0;orthogonalLoop=1;jettySize=auto;html=1;exitX=0.5;exitY=1;exitDx=0;exitDy=0;strokeColor=default;align=center;verticalAlign=middle;fontFamily=Helvetica;fontSize=11;fontColor=default;labelBackgroundColor=default;endArrow=none;endFill=0;" parent="1" source="522PLWxv3GH3lVlRrwer-1" edge="1">
          <mxGeometry relative="1" as="geometry">
            <mxPoint x="340" y="440" as="targetPoint" />
          </mxGeometry>
        </mxCell>
        <mxCell id="522PLWxv3GH3lVlRrwer-1" value="Shopper has a&lt;div&gt;loyalty card?&lt;/div&gt;" style="shape=hexagon;perimeter=hexagonPerimeter2;whiteSpace=wrap;html=1;fixedSize=1;" parent="1" vertex="1">
          <mxGeometry x="280" y="340" width="120" height="60" as="geometry" />
        </mxCell>
        <mxCell id="hSRX0kzUHfm1sk4XOJKA-2" style="edgeStyle=orthogonalEdgeStyle;rounded=0;orthogonalLoop=1;jettySize=auto;html=1;exitX=0.5;exitY=1;exitDx=0;exitDy=0;entryX=0.5;entryY=0;entryDx=0;entryDy=0;endArrow=none;endFill=0;" parent="1" source="hSRX0kzUHfm1sk4XOJKA-1" target="522PLWxv3GH3lVlRrwer-1" edge="1">
          <mxGeometry relative="1" as="geometry" />
        </mxCell>
        <mxCell id="hSRX0kzUHfm1sk4XOJKA-3" style="edgeStyle=orthogonalEdgeStyle;shape=connector;rounded=0;orthogonalLoop=1;jettySize=auto;html=1;exitX=0.5;exitY=0;exitDx=0;exitDy=0;strokeColor=default;align=center;verticalAlign=middle;fontFamily=Helvetica;fontSize=11;fontColor=default;labelBackgroundColor=default;endArrow=none;endFill=0;" parent="1" source="hSRX0kzUHfm1sk4XOJKA-1" edge="1">
          <mxGeometry relative="1" as="geometry">
            <mxPoint x="340" y="200" as="targetPoint" />
          </mxGeometry>
        </mxCell>
        <mxCell id="hSRX0kzUHfm1sk4XOJKA-1" value="Ask if shopper has&lt;div&gt;a loyalty card&lt;/div&gt;" style="rounded=0;whiteSpace=wrap;html=1;" parent="1" vertex="1">
          <mxGeometry x="280" y="240" width="120" height="60" as="geometry" />
        </mxCell>
        <mxCell id="uFCa1QzRlU-jExEB5yJH-7" style="edgeStyle=orthogonalEdgeStyle;shape=connector;rounded=0;orthogonalLoop=1;jettySize=auto;html=1;exitX=0.5;exitY=0;exitDx=0;exitDy=0;strokeColor=default;align=center;verticalAlign=middle;fontFamily=Helvetica;fontSize=11;fontColor=default;labelBackgroundColor=default;endArrow=none;endFill=0;" parent="1" source="J2diCziaxvhJbRnHHkE_-1" edge="1">
          <mxGeometry relative="1" as="geometry">
            <mxPoint x="100" y="440" as="targetPoint" />
          </mxGeometry>
        </mxCell>
        <mxCell id="J2diCziaxvhJbRnHHkE_-1" value="Calculate 10% discount" style="rounded=0;whiteSpace=wrap;html=1;" parent="1" vertex="1">
          <mxGeometry x="40" y="460" width="120" height="60" as="geometry" />
        </mxCell>
        <mxCell id="uFCa1QzRlU-jExEB5yJH-9" value="" style="endArrow=none;html=1;rounded=0;strokeColor=default;align=center;verticalAlign=middle;fontFamily=Helvetica;fontSize=11;fontColor=default;labelBackgroundColor=default;edgeStyle=orthogonalEdgeStyle;" parent="1" edge="1">
          <mxGeometry width="50" height="50" relative="1" as="geometry">
            <mxPoint x="100" y="440" as="sourcePoint" />
            <mxPoint x="420" y="440" as="targetPoint" />
          </mxGeometry>
        </mxCell>
        <mxCell id="uFCa1QzRlU-jExEB5yJH-13" style="edgeStyle=orthogonalEdgeStyle;shape=connector;rounded=0;orthogonalLoop=1;jettySize=auto;html=1;exitX=0.5;exitY=0;exitDx=0;exitDy=0;strokeColor=default;align=center;verticalAlign=middle;fontFamily=Helvetica;fontSize=11;fontColor=default;labelBackgroundColor=default;endArrow=none;endFill=0;" parent="1" source="uFCa1QzRlU-jExEB5yJH-12" edge="1">
          <mxGeometry relative="1" as="geometry">
            <mxPoint x="420" y="440" as="targetPoint" />
            <Array as="points">
              <mxPoint x="580" y="440" />
            </Array>
          </mxGeometry>
        </mxCell>
        <mxCell id="uFCa1QzRlU-jExEB5yJH-12" value="Calculate final amount to pay" style="rounded=0;whiteSpace=wrap;html=1;" parent="1" vertex="1">
          <mxGeometry x="520" y="460" width="120" height="60" as="geometry" />
        </mxCell>
        <mxCell id="LHiGsDkiX16LsYTKpYVU-2" style="edgeStyle=orthogonalEdgeStyle;rounded=0;orthogonalLoop=1;jettySize=auto;html=1;exitX=0.5;exitY=0;exitDx=0;exitDy=0;endArrow=none;endFill=0;" parent="1" source="LHiGsDkiX16LsYTKpYVU-1" edge="1">
          <mxGeometry relative="1" as="geometry">
            <mxPoint x="420" y="440" as="targetPoint" />
          </mxGeometry>
        </mxCell>
        <mxCell id="LHiGsDkiX16LsYTKpYVU-1" value="Display discount amount" style="rounded=0;whiteSpace=wrap;html=1;" parent="1" vertex="1">
          <mxGeometry x="360" y="460" width="120" height="60" as="geometry" />
        </mxCell>
      </root>
    </mxGraphModel>
  </diagram>
  <diagram id="gd1SCO8zGrmLGN10B-iM" name="sd2">
    <mxGraphModel dx="1564" dy="1078" grid="1" gridSize="10" guides="1" tooltips="1" connect="1" arrows="1" fold="1" page="1" pageScale="1" pageWidth="1169" pageHeight="827" math="0" shadow="0">
      <root>
        <mxCell id="0" />
        <mxCell id="1" parent="0" />
        <mxCell id="2BwgFsl3VLa_b2nYBKN8-46" style="edgeStyle=orthogonalEdgeStyle;shape=connector;rounded=0;orthogonalLoop=1;jettySize=auto;html=1;exitX=0.5;exitY=1;exitDx=0;exitDy=0;labelBackgroundColor=default;strokeColor=default;fontFamily=Helvetica;fontSize=11;fontColor=default;endArrow=none;endFill=0;" parent="1" source="2BwgFsl3VLa_b2nYBKN8-1" edge="1">
          <mxGeometry relative="1" as="geometry">
            <mxPoint x="640" y="210" as="targetPoint" />
          </mxGeometry>
        </mxCell>
        <mxCell id="2BwgFsl3VLa_b2nYBKN8-1" value="UoB Book Shop" style="rounded=0;whiteSpace=wrap;html=1;" parent="1" vertex="1">
          <mxGeometry x="580" y="120" width="120" height="60" as="geometry" />
        </mxCell>
        <mxCell id="2BwgFsl3VLa_b2nYBKN8-25" style="edgeStyle=orthogonalEdgeStyle;rounded=0;orthogonalLoop=1;jettySize=auto;html=1;exitX=0.5;exitY=0;exitDx=0;exitDy=0;endArrow=none;endFill=0;" parent="1" source="2BwgFsl3VLa_b2nYBKN8-2" edge="1">
          <mxGeometry relative="1" as="geometry">
            <mxPoint x="340" y="210" as="targetPoint" />
          </mxGeometry>
        </mxCell>
        <mxCell id="2BwgFsl3VLa_b2nYBKN8-2" value="Get valid amount" style="rounded=0;whiteSpace=wrap;html=1;" parent="1" vertex="1">
          <mxGeometry x="280" y="240" width="120" height="60" as="geometry" />
        </mxCell>
        <mxCell id="2BwgFsl3VLa_b2nYBKN8-26" style="edgeStyle=orthogonalEdgeStyle;rounded=0;orthogonalLoop=1;jettySize=auto;html=1;exitX=0.5;exitY=0;exitDx=0;exitDy=0;endArrow=none;endFill=0;" parent="1" source="2BwgFsl3VLa_b2nYBKN8-3" edge="1">
          <mxGeometry relative="1" as="geometry">
            <mxPoint x="501.42857142857156" y="210" as="targetPoint" />
          </mxGeometry>
        </mxCell>
        <mxCell id="JrPhyKwZefGcbtjGruJl-7" style="edgeStyle=none;shape=connector;rounded=0;orthogonalLoop=1;jettySize=auto;html=1;exitX=0.5;exitY=1;exitDx=0;exitDy=0;labelBackgroundColor=default;strokeColor=default;fontFamily=Helvetica;fontSize=11;fontColor=default;endArrow=none;endFill=0;" parent="1" source="2BwgFsl3VLa_b2nYBKN8-3" edge="1">
          <mxGeometry relative="1" as="geometry">
            <mxPoint x="500" y="330" as="targetPoint" />
          </mxGeometry>
        </mxCell>
        <mxCell id="2BwgFsl3VLa_b2nYBKN8-3" value="Get discount type" style="rounded=0;whiteSpace=wrap;html=1;" parent="1" vertex="1">
          <mxGeometry x="440" y="240" width="120" height="60" as="geometry" />
        </mxCell>
        <mxCell id="JrPhyKwZefGcbtjGruJl-4" style="edgeStyle=none;shape=connector;rounded=0;orthogonalLoop=1;jettySize=auto;html=1;exitX=0.5;exitY=0;exitDx=0;exitDy=0;entryX=0.375;entryY=1;entryDx=0;entryDy=0;labelBackgroundColor=default;strokeColor=default;fontFamily=Helvetica;fontSize=11;fontColor=default;endArrow=none;endFill=0;" parent="1" source="2BwgFsl3VLa_b2nYBKN8-5" target="CmPyJKJDkWwYl_QMhDiX-8" edge="1">
          <mxGeometry relative="1" as="geometry" />
        </mxCell>
        <mxCell id="2BwgFsl3VLa_b2nYBKN8-5" value="Set discount rate&lt;br&gt;to 10" style="rounded=0;whiteSpace=wrap;html=1;" parent="1" vertex="1">
          <mxGeometry x="240" y="480" width="120" height="60" as="geometry" />
        </mxCell>
        <mxCell id="CmPyJKJDkWwYl_QMhDiX-18" style="edgeStyle=orthogonalEdgeStyle;shape=connector;rounded=0;orthogonalLoop=1;jettySize=auto;html=1;exitX=0.5;exitY=0;exitDx=0;exitDy=0;entryX=0.5;entryY=1;entryDx=0;entryDy=0;labelBackgroundColor=default;strokeColor=default;fontFamily=Helvetica;fontSize=11;fontColor=default;endArrow=none;endFill=0;" parent="1" source="2BwgFsl3VLa_b2nYBKN8-9" target="CmPyJKJDkWwYl_QMhDiX-11" edge="1">
          <mxGeometry relative="1" as="geometry" />
        </mxCell>
        <mxCell id="2BwgFsl3VLa_b2nYBKN8-9" value="Calculate discount:&lt;br&gt;amount to pay&amp;nbsp;&lt;span style=&quot;color: rgb(31, 31, 31); text-align: left; background-color: rgb(255, 255, 255);&quot;&gt;&lt;font style=&quot;font-size: 12px;&quot;&gt;×&lt;/font&gt;&lt;/span&gt;&lt;br&gt;(discount rate&amp;nbsp;&lt;span style=&quot;color: rgb(31, 31, 31); font-family: &amp;quot;Google Sans&amp;quot;, Arial, sans-serif; text-align: left; background-color: rgb(255, 255, 255);&quot;&gt;&lt;font style=&quot;font-size: 12px;&quot;&gt;÷&amp;nbsp;&lt;/font&gt;&lt;/span&gt;100)" style="rounded=0;whiteSpace=wrap;html=1;" parent="1" vertex="1">
          <mxGeometry x="560" y="480" width="120" height="60" as="geometry" />
        </mxCell>
        <mxCell id="2BwgFsl3VLa_b2nYBKN8-44" style="edgeStyle=orthogonalEdgeStyle;shape=connector;rounded=0;orthogonalLoop=1;jettySize=auto;html=1;exitX=0.5;exitY=0;exitDx=0;exitDy=0;entryX=0.5;entryY=1;entryDx=0;entryDy=0;labelBackgroundColor=default;strokeColor=default;fontFamily=Helvetica;fontSize=11;fontColor=default;endArrow=none;endFill=0;" parent="1" source="2BwgFsl3VLa_b2nYBKN8-10" target="2BwgFsl3VLa_b2nYBKN8-9" edge="1">
          <mxGeometry relative="1" as="geometry" />
        </mxCell>
        <mxCell id="_ii_MElEqdxS3bVGn6bL-7" style="edgeStyle=none;shape=connector;rounded=0;orthogonalLoop=1;jettySize=auto;html=1;exitX=0.5;exitY=1;exitDx=0;exitDy=0;labelBackgroundColor=default;strokeColor=default;fontFamily=Helvetica;fontSize=12;fontColor=default;endArrow=none;endFill=0;" edge="1" parent="1" source="2BwgFsl3VLa_b2nYBKN8-10">
          <mxGeometry relative="1" as="geometry">
            <mxPoint x="619.9047619047618" y="690" as="targetPoint" />
          </mxGeometry>
        </mxCell>
        <mxCell id="2BwgFsl3VLa_b2nYBKN8-10" value="Update amount&lt;br&gt;to pay" style="rounded=0;whiteSpace=wrap;html=1;" parent="1" vertex="1">
          <mxGeometry x="560" y="600" width="120" height="60" as="geometry" />
        </mxCell>
        <mxCell id="CmPyJKJDkWwYl_QMhDiX-17" style="edgeStyle=orthogonalEdgeStyle;shape=connector;rounded=0;orthogonalLoop=1;jettySize=auto;html=1;exitX=0.5;exitY=0;exitDx=0;exitDy=0;entryX=0.5;entryY=1;entryDx=0;entryDy=0;labelBackgroundColor=default;strokeColor=default;fontFamily=Helvetica;fontSize=11;fontColor=default;endArrow=none;endFill=0;" parent="1" source="2BwgFsl3VLa_b2nYBKN8-11" target="CmPyJKJDkWwYl_QMhDiX-9" edge="1">
          <mxGeometry relative="1" as="geometry" />
        </mxCell>
        <mxCell id="2BwgFsl3VLa_b2nYBKN8-11" value="Set discount rate&lt;br&gt;to 20" style="rounded=0;whiteSpace=wrap;html=1;" parent="1" vertex="1">
          <mxGeometry x="400" y="600" width="120" height="60" as="geometry" />
        </mxCell>
        <mxCell id="2BwgFsl3VLa_b2nYBKN8-35" style="edgeStyle=orthogonalEdgeStyle;rounded=0;orthogonalLoop=1;jettySize=auto;html=1;exitX=0.5;exitY=0;exitDx=0;exitDy=0;endArrow=none;endFill=0;" parent="1" source="2BwgFsl3VLa_b2nYBKN8-12" edge="1">
          <mxGeometry relative="1" as="geometry">
            <mxPoint x="780" y="210" as="targetPoint" />
          </mxGeometry>
        </mxCell>
        <mxCell id="2BwgFsl3VLa_b2nYBKN8-12" value="Get voucher" style="rounded=0;whiteSpace=wrap;html=1;" parent="1" vertex="1">
          <mxGeometry x="720" y="240" width="120" height="60" as="geometry" />
        </mxCell>
        <mxCell id="CmPyJKJDkWwYl_QMhDiX-19" style="edgeStyle=orthogonalEdgeStyle;shape=connector;rounded=0;orthogonalLoop=1;jettySize=auto;html=1;exitX=0.5;exitY=0;exitDx=0;exitDy=0;entryX=0.5;entryY=1;entryDx=0;entryDy=0;labelBackgroundColor=default;strokeColor=default;fontFamily=Helvetica;fontSize=11;fontColor=default;endArrow=none;endFill=0;" parent="1" source="2BwgFsl3VLa_b2nYBKN8-14" target="CmPyJKJDkWwYl_QMhDiX-12" edge="1">
          <mxGeometry relative="1" as="geometry" />
        </mxCell>
        <mxCell id="2BwgFsl3VLa_b2nYBKN8-14" value="Reduce amount to pay by £10" style="rounded=0;whiteSpace=wrap;html=1;" parent="1" vertex="1">
          <mxGeometry x="720" y="480" width="120" height="60" as="geometry" />
        </mxCell>
        <mxCell id="re6lLt0kuD69fnyGJ5kz-13" style="edgeStyle=none;shape=connector;rounded=0;orthogonalLoop=1;jettySize=auto;html=1;exitX=0.5;exitY=0;exitDx=0;exitDy=0;labelBackgroundColor=default;strokeColor=default;fontFamily=Helvetica;fontSize=11;fontColor=default;endArrow=none;endFill=0;" parent="1" source="2BwgFsl3VLa_b2nYBKN8-21" edge="1">
          <mxGeometry relative="1" as="geometry">
            <mxPoint x="1101" y="210" as="targetPoint" />
          </mxGeometry>
        </mxCell>
        <mxCell id="2BwgFsl3VLa_b2nYBKN8-21" value="Display final amount to pay" style="rounded=0;whiteSpace=wrap;html=1;" parent="1" vertex="1">
          <mxGeometry x="1040.5" y="240" width="120" height="60" as="geometry" />
        </mxCell>
        <mxCell id="_ii_MElEqdxS3bVGn6bL-5" style="edgeStyle=none;shape=connector;rounded=0;orthogonalLoop=1;jettySize=auto;html=1;exitX=0.5;exitY=0;exitDx=0;exitDy=0;labelBackgroundColor=default;strokeColor=default;fontFamily=Helvetica;fontSize=12;fontColor=default;endArrow=none;endFill=0;" edge="1" parent="1" source="2BwgFsl3VLa_b2nYBKN8-22">
          <mxGeometry relative="1" as="geometry">
            <mxPoint x="699.9047619047619" y="690" as="targetPoint" />
          </mxGeometry>
        </mxCell>
        <mxCell id="2BwgFsl3VLa_b2nYBKN8-22" value="Display amount&lt;br&gt;to pay" style="rounded=0;whiteSpace=wrap;html=1;" parent="1" vertex="1">
          <mxGeometry x="640" y="720" width="120" height="60" as="geometry" />
        </mxCell>
        <mxCell id="2BwgFsl3VLa_b2nYBKN8-23" value="" style="endArrow=none;html=1;rounded=0;" parent="1" edge="1">
          <mxGeometry width="50" height="50" relative="1" as="geometry">
            <mxPoint x="180" y="210" as="sourcePoint" />
            <mxPoint x="1100" y="210" as="targetPoint" />
          </mxGeometry>
        </mxCell>
        <mxCell id="2BwgFsl3VLa_b2nYBKN8-24" value="" style="endArrow=none;html=1;rounded=0;" parent="1" edge="1">
          <mxGeometry width="50" height="50" relative="1" as="geometry">
            <mxPoint x="380" y="330" as="sourcePoint" />
            <mxPoint x="620" y="330" as="targetPoint" />
          </mxGeometry>
        </mxCell>
        <mxCell id="2BwgFsl3VLa_b2nYBKN8-47" value="Yes" style="text;html=1;strokeColor=none;fillColor=none;align=right;verticalAlign=middle;whiteSpace=wrap;rounded=0;fontSize=11;fontFamily=Helvetica;fontColor=default;spacing=2;spacingRight=3;" parent="1" vertex="1">
          <mxGeometry x="400" y="540" width="60" height="30" as="geometry" />
        </mxCell>
        <mxCell id="2BwgFsl3VLa_b2nYBKN8-48" value="Yes" style="text;html=1;strokeColor=none;fillColor=none;align=right;verticalAlign=middle;whiteSpace=wrap;rounded=0;fontSize=11;fontFamily=Helvetica;fontColor=default;spacing=2;spacingRight=3;" parent="1" vertex="1">
          <mxGeometry x="300" y="420" width="40" height="30" as="geometry" />
        </mxCell>
        <mxCell id="2BwgFsl3VLa_b2nYBKN8-49" value="Yes" style="text;html=1;strokeColor=none;fillColor=none;align=right;verticalAlign=middle;whiteSpace=wrap;rounded=0;fontSize=11;fontFamily=Helvetica;fontColor=default;spacing=2;spacingRight=3;" parent="1" vertex="1">
          <mxGeometry x="560" y="420" width="60" height="30" as="geometry" />
        </mxCell>
        <mxCell id="2BwgFsl3VLa_b2nYBKN8-50" value="Yes" style="text;html=1;strokeColor=none;fillColor=none;align=right;verticalAlign=middle;whiteSpace=wrap;rounded=0;fontSize=11;fontFamily=Helvetica;fontColor=default;spacing=2;spacingRight=3;" parent="1" vertex="1">
          <mxGeometry x="720" y="415" width="60" height="30" as="geometry" />
        </mxCell>
        <mxCell id="CmPyJKJDkWwYl_QMhDiX-5" style="edgeStyle=orthogonalEdgeStyle;rounded=0;orthogonalLoop=1;jettySize=auto;html=1;exitX=0.5;exitY=0;exitDx=0;exitDy=0;entryX=0.5;entryY=1;entryDx=0;entryDy=0;endArrow=none;endFill=0;" parent="1" source="CmPyJKJDkWwYl_QMhDiX-3" target="2BwgFsl3VLa_b2nYBKN8-14" edge="1">
          <mxGeometry relative="1" as="geometry" />
        </mxCell>
        <mxCell id="CmPyJKJDkWwYl_QMhDiX-3" value="Display message" style="rounded=0;whiteSpace=wrap;html=1;" parent="1" vertex="1">
          <mxGeometry x="720" y="600" width="120" height="60" as="geometry" />
        </mxCell>
        <mxCell id="re6lLt0kuD69fnyGJ5kz-16" style="edgeStyle=none;shape=connector;rounded=0;orthogonalLoop=1;jettySize=auto;html=1;exitX=0.5;exitY=0;exitDx=0;exitDy=0;labelBackgroundColor=default;strokeColor=default;fontFamily=Helvetica;fontSize=11;fontColor=default;endArrow=none;endFill=0;" parent="1" source="CmPyJKJDkWwYl_QMhDiX-8" edge="1">
          <mxGeometry relative="1" as="geometry">
            <mxPoint x="379.939393939394" y="330" as="targetPoint" />
          </mxGeometry>
        </mxCell>
        <mxCell id="CmPyJKJDkWwYl_QMhDiX-8" value="Student?" style="shape=hexagon;perimeter=hexagonPerimeter2;whiteSpace=wrap;html=1;fixedSize=1;" parent="1" vertex="1">
          <mxGeometry x="320" y="360" width="120" height="60" as="geometry" />
        </mxCell>
        <mxCell id="JrPhyKwZefGcbtjGruJl-5" style="edgeStyle=none;shape=connector;rounded=0;orthogonalLoop=1;jettySize=auto;html=1;exitX=0.5;exitY=0;exitDx=0;exitDy=0;entryX=0.625;entryY=1;entryDx=0;entryDy=0;labelBackgroundColor=default;strokeColor=default;fontFamily=Helvetica;fontSize=11;fontColor=default;endArrow=none;endFill=0;" parent="1" source="CmPyJKJDkWwYl_QMhDiX-9" target="CmPyJKJDkWwYl_QMhDiX-8" edge="1">
          <mxGeometry relative="1" as="geometry" />
        </mxCell>
        <mxCell id="CmPyJKJDkWwYl_QMhDiX-9" value="Staff?" style="shape=hexagon;perimeter=hexagonPerimeter2;whiteSpace=wrap;html=1;fixedSize=1;" parent="1" vertex="1">
          <mxGeometry x="400" y="480" width="120" height="60" as="geometry" />
        </mxCell>
        <mxCell id="re6lLt0kuD69fnyGJ5kz-14" style="edgeStyle=none;shape=connector;rounded=0;orthogonalLoop=1;jettySize=auto;html=1;exitX=0.5;exitY=0;exitDx=0;exitDy=0;labelBackgroundColor=default;strokeColor=default;fontFamily=Helvetica;fontSize=11;fontColor=default;endArrow=none;endFill=0;" parent="1" source="CmPyJKJDkWwYl_QMhDiX-11" edge="1">
          <mxGeometry relative="1" as="geometry">
            <mxPoint x="619.939393939394" y="330" as="targetPoint" />
          </mxGeometry>
        </mxCell>
        <mxCell id="CmPyJKJDkWwYl_QMhDiX-11" value="Is discount&lt;br&gt;rate not equal&lt;br&gt;to zero?" style="shape=hexagon;perimeter=hexagonPerimeter2;whiteSpace=wrap;html=1;fixedSize=1;" parent="1" vertex="1">
          <mxGeometry x="560" y="360" width="120" height="60" as="geometry" />
        </mxCell>
        <mxCell id="re6lLt0kuD69fnyGJ5kz-11" style="edgeStyle=none;shape=connector;rounded=0;orthogonalLoop=1;jettySize=auto;html=1;exitX=0.5;exitY=0;exitDx=0;exitDy=0;entryX=0.5;entryY=1;entryDx=0;entryDy=0;labelBackgroundColor=default;strokeColor=default;fontFamily=Helvetica;fontSize=11;fontColor=default;endArrow=none;endFill=0;" parent="1" source="CmPyJKJDkWwYl_QMhDiX-12" target="2BwgFsl3VLa_b2nYBKN8-12" edge="1">
          <mxGeometry relative="1" as="geometry" />
        </mxCell>
        <mxCell id="CmPyJKJDkWwYl_QMhDiX-12" value="Has a voucher?" style="shape=hexagon;perimeter=hexagonPerimeter2;whiteSpace=wrap;html=1;fixedSize=1;" parent="1" vertex="1">
          <mxGeometry x="720" y="360" width="120" height="60" as="geometry" />
        </mxCell>
        <mxCell id="JrPhyKwZefGcbtjGruJl-3" style="rounded=0;orthogonalLoop=1;jettySize=auto;html=1;exitX=0.5;exitY=0;exitDx=0;exitDy=0;endArrow=none;endFill=0;" parent="1" source="JrPhyKwZefGcbtjGruJl-2" edge="1">
          <mxGeometry relative="1" as="geometry">
            <mxPoint x="179.5" y="210" as="targetPoint" />
          </mxGeometry>
        </mxCell>
        <mxCell id="JrPhyKwZefGcbtjGruJl-2" value="Initialise variables" style="rounded=0;whiteSpace=wrap;html=1;" parent="1" vertex="1">
          <mxGeometry x="120" y="240" width="120" height="60" as="geometry" />
        </mxCell>
        <mxCell id="JrPhyKwZefGcbtjGruJl-6" value="No" style="text;html=1;strokeColor=none;fillColor=none;align=left;verticalAlign=middle;whiteSpace=wrap;rounded=0;fontSize=11;fontFamily=Helvetica;fontColor=default;spacing=2;spacingRight=3;" parent="1" vertex="1">
          <mxGeometry x="420" y="420" width="40" height="30" as="geometry" />
        </mxCell>
        <mxCell id="re6lLt0kuD69fnyGJ5kz-1" style="edgeStyle=orthogonalEdgeStyle;shape=connector;rounded=0;orthogonalLoop=1;jettySize=auto;html=1;exitX=0.5;exitY=0;exitDx=0;exitDy=0;entryX=0.5;entryY=1;entryDx=0;entryDy=0;labelBackgroundColor=default;strokeColor=default;fontFamily=Helvetica;fontSize=11;fontColor=default;endArrow=none;endFill=0;" parent="1" source="re6lLt0kuD69fnyGJ5kz-2" target="re6lLt0kuD69fnyGJ5kz-4" edge="1">
          <mxGeometry relative="1" as="geometry" />
        </mxCell>
        <mxCell id="re6lLt0kuD69fnyGJ5kz-2" value="Display message" style="rounded=0;whiteSpace=wrap;html=1;" parent="1" vertex="1">
          <mxGeometry x="880" y="480" width="120" height="60" as="geometry" />
        </mxCell>
        <mxCell id="re6lLt0kuD69fnyGJ5kz-3" style="edgeStyle=orthogonalEdgeStyle;shape=connector;rounded=0;orthogonalLoop=1;jettySize=auto;html=1;exitX=0.5;exitY=0;exitDx=0;exitDy=0;entryX=0.5;entryY=1;entryDx=0;entryDy=0;labelBackgroundColor=default;strokeColor=default;fontFamily=Helvetica;fontSize=11;fontColor=default;endArrow=none;endFill=0;" parent="1" source="re6lLt0kuD69fnyGJ5kz-4" target="re6lLt0kuD69fnyGJ5kz-6" edge="1">
          <mxGeometry relative="1" as="geometry" />
        </mxCell>
        <mxCell id="re6lLt0kuD69fnyGJ5kz-4" value="Set amount to pay&lt;br&gt;to zero" style="rounded=0;whiteSpace=wrap;html=1;" parent="1" vertex="1">
          <mxGeometry x="880" y="360" width="120" height="60" as="geometry" />
        </mxCell>
        <mxCell id="re6lLt0kuD69fnyGJ5kz-5" value="Yes" style="text;html=1;strokeColor=none;fillColor=none;align=right;verticalAlign=middle;whiteSpace=wrap;rounded=0;fontSize=11;fontFamily=Helvetica;fontColor=default;spacing=2;spacingRight=3;" parent="1" vertex="1">
          <mxGeometry x="880" y="300" width="60" height="30" as="geometry" />
        </mxCell>
        <mxCell id="re6lLt0kuD69fnyGJ5kz-12" style="edgeStyle=none;shape=connector;rounded=0;orthogonalLoop=1;jettySize=auto;html=1;exitX=0.5;exitY=0;exitDx=0;exitDy=0;labelBackgroundColor=default;strokeColor=default;fontFamily=Helvetica;fontSize=11;fontColor=default;endArrow=none;endFill=0;" parent="1" source="re6lLt0kuD69fnyGJ5kz-6" edge="1">
          <mxGeometry relative="1" as="geometry">
            <mxPoint x="940" y="210" as="targetPoint" />
          </mxGeometry>
        </mxCell>
        <mxCell id="re6lLt0kuD69fnyGJ5kz-6" value="Is&lt;br style=&quot;border-color: var(--border-color);&quot;&gt;amount to pay&lt;br style=&quot;border-color: var(--border-color);&quot;&gt;less than £0?" style="shape=hexagon;perimeter=hexagonPerimeter2;whiteSpace=wrap;html=1;fixedSize=1;" parent="1" vertex="1">
          <mxGeometry x="880" y="240" width="120" height="60" as="geometry" />
        </mxCell>
        <mxCell id="_ii_MElEqdxS3bVGn6bL-6" style="edgeStyle=none;shape=connector;rounded=0;orthogonalLoop=1;jettySize=auto;html=1;exitX=0.5;exitY=0;exitDx=0;exitDy=0;labelBackgroundColor=default;strokeColor=default;fontFamily=Helvetica;fontSize=12;fontColor=default;endArrow=none;endFill=0;" edge="1" parent="1" source="_ii_MElEqdxS3bVGn6bL-2">
          <mxGeometry relative="1" as="geometry">
            <mxPoint x="539.9047619047618" y="690" as="targetPoint" />
          </mxGeometry>
        </mxCell>
        <mxCell id="_ii_MElEqdxS3bVGn6bL-2" value="Display discount" style="rounded=0;whiteSpace=wrap;html=1;" vertex="1" parent="1">
          <mxGeometry x="480" y="720" width="120" height="60" as="geometry" />
        </mxCell>
        <mxCell id="_ii_MElEqdxS3bVGn6bL-3" value="" style="endArrow=none;html=1;rounded=0;labelBackgroundColor=default;strokeColor=default;fontFamily=Helvetica;fontSize=12;fontColor=default;shape=connector;" edge="1" parent="1">
          <mxGeometry width="50" height="50" relative="1" as="geometry">
            <mxPoint x="540" y="690" as="sourcePoint" />
            <mxPoint x="700" y="690" as="targetPoint" />
          </mxGeometry>
        </mxCell>
      </root>
    </mxGraphModel>
  </diagram>
  <diagram id="hI88Y_nKHE15rWBVFnGe" name="Page-3">
    <mxGraphModel dx="782" dy="539" grid="1" gridSize="10" guides="1" tooltips="1" connect="1" arrows="1" fold="1" page="1" pageScale="1" pageWidth="827" pageHeight="1169" math="0" shadow="0">
      <root>
        <mxCell id="uQRmSnmffVO2BU24MDGY-0" />
        <mxCell id="uQRmSnmffVO2BU24MDGY-1" parent="uQRmSnmffVO2BU24MDGY-0" />
        <mxCell id="uQRmSnmffVO2BU24MDGY-2" style="edgeStyle=orthogonalEdgeStyle;shape=connector;rounded=0;orthogonalLoop=1;jettySize=auto;html=1;exitX=0.5;exitY=1;exitDx=0;exitDy=0;labelBackgroundColor=default;strokeColor=default;fontFamily=Helvetica;fontSize=11;fontColor=default;endArrow=none;endFill=0;" parent="uQRmSnmffVO2BU24MDGY-1" source="uQRmSnmffVO2BU24MDGY-3" edge="1">
          <mxGeometry relative="1" as="geometry">
            <mxPoint x="580" y="210" as="targetPoint" />
          </mxGeometry>
        </mxCell>
        <mxCell id="uQRmSnmffVO2BU24MDGY-3" value="Calculate final amount" style="rounded=0;whiteSpace=wrap;html=1;" parent="uQRmSnmffVO2BU24MDGY-1" vertex="1">
          <mxGeometry x="520" y="120" width="120" height="60" as="geometry" />
        </mxCell>
        <mxCell id="uQRmSnmffVO2BU24MDGY-4" style="edgeStyle=orthogonalEdgeStyle;rounded=0;orthogonalLoop=1;jettySize=auto;html=1;exitX=0.5;exitY=0;exitDx=0;exitDy=0;endArrow=none;endFill=0;" parent="uQRmSnmffVO2BU24MDGY-1" source="uQRmSnmffVO2BU24MDGY-5" edge="1">
          <mxGeometry relative="1" as="geometry">
            <mxPoint x="180.42857142857156" y="210" as="targetPoint" />
          </mxGeometry>
        </mxCell>
        <mxCell id="uQRmSnmffVO2BU24MDGY-5" value="Get total amount" style="rounded=0;whiteSpace=wrap;html=1;" parent="uQRmSnmffVO2BU24MDGY-1" vertex="1">
          <mxGeometry x="120" y="240" width="120" height="60" as="geometry" />
        </mxCell>
        <mxCell id="uQRmSnmffVO2BU24MDGY-6" style="edgeStyle=orthogonalEdgeStyle;rounded=0;orthogonalLoop=1;jettySize=auto;html=1;exitX=0.5;exitY=0;exitDx=0;exitDy=0;endArrow=none;endFill=0;" parent="uQRmSnmffVO2BU24MDGY-1" source="uQRmSnmffVO2BU24MDGY-7" edge="1">
          <mxGeometry relative="1" as="geometry">
            <mxPoint x="340.42857142857156" y="210" as="targetPoint" />
          </mxGeometry>
        </mxCell>
        <mxCell id="uQRmSnmffVO2BU24MDGY-7" value="Get answer to &quot;Discount?&quot;" style="rounded=0;whiteSpace=wrap;html=1;" parent="uQRmSnmffVO2BU24MDGY-1" vertex="1">
          <mxGeometry x="280" y="240" width="120" height="60" as="geometry" />
        </mxCell>
        <mxCell id="uQRmSnmffVO2BU24MDGY-8" style="edgeStyle=orthogonalEdgeStyle;rounded=0;orthogonalLoop=1;jettySize=auto;html=1;endArrow=none;endFill=0;" parent="uQRmSnmffVO2BU24MDGY-1" edge="1">
          <mxGeometry relative="1" as="geometry">
            <mxPoint x="180.42857142857156" y="330" as="targetPoint" />
            <mxPoint x="180" y="360" as="sourcePoint" />
          </mxGeometry>
        </mxCell>
        <mxCell id="uQRmSnmffVO2BU24MDGY-9" value="Is&lt;br&gt;answer&lt;br&gt;&quot;yes&quot;?" style="rhombus;whiteSpace=wrap;html=1;" parent="uQRmSnmffVO2BU24MDGY-1" vertex="1">
          <mxGeometry x="120" y="360" width="120" height="80" as="geometry" />
        </mxCell>
        <mxCell id="uQRmSnmffVO2BU24MDGY-10" style="edgeStyle=orthogonalEdgeStyle;shape=connector;rounded=0;orthogonalLoop=1;jettySize=auto;html=1;exitX=0.5;exitY=0;exitDx=0;exitDy=0;entryX=0.5;entryY=1;entryDx=0;entryDy=0;labelBackgroundColor=default;strokeColor=default;fontFamily=Helvetica;fontSize=11;fontColor=default;endArrow=none;endFill=0;" parent="uQRmSnmffVO2BU24MDGY-1" source="uQRmSnmffVO2BU24MDGY-11" target="uQRmSnmffVO2BU24MDGY-9" edge="1">
          <mxGeometry relative="1" as="geometry" />
        </mxCell>
        <mxCell id="uQRmSnmffVO2BU24MDGY-11" value="Get discount %" style="rounded=0;whiteSpace=wrap;html=1;" parent="uQRmSnmffVO2BU24MDGY-1" vertex="1">
          <mxGeometry x="120" y="483.5" width="120" height="60" as="geometry" />
        </mxCell>
        <mxCell id="uQRmSnmffVO2BU24MDGY-12" style="edgeStyle=orthogonalEdgeStyle;rounded=0;orthogonalLoop=1;jettySize=auto;html=1;exitX=0.5;exitY=0;exitDx=0;exitDy=0;entryX=0.5;entryY=1;entryDx=0;entryDy=0;endArrow=none;endFill=0;" parent="uQRmSnmffVO2BU24MDGY-1" source="uQRmSnmffVO2BU24MDGY-13" target="uQRmSnmffVO2BU24MDGY-7" edge="1">
          <mxGeometry relative="1" as="geometry" />
        </mxCell>
        <mxCell id="uQRmSnmffVO2BU24MDGY-13" value="Is&lt;br&gt;discount %&lt;br&gt;&amp;gt; 40?" style="rhombus;whiteSpace=wrap;html=1;" parent="uQRmSnmffVO2BU24MDGY-1" vertex="1">
          <mxGeometry x="280" y="360" width="120" height="80" as="geometry" />
        </mxCell>
        <mxCell id="uQRmSnmffVO2BU24MDGY-14" style="edgeStyle=orthogonalEdgeStyle;shape=connector;rounded=0;orthogonalLoop=1;jettySize=auto;html=1;exitX=0.5;exitY=0;exitDx=0;exitDy=0;entryX=0.5;entryY=1;entryDx=0;entryDy=0;labelBackgroundColor=default;strokeColor=default;fontFamily=Helvetica;fontSize=11;fontColor=default;endArrow=none;endFill=0;" parent="uQRmSnmffVO2BU24MDGY-1" source="uQRmSnmffVO2BU24MDGY-15" target="uQRmSnmffVO2BU24MDGY-23" edge="1">
          <mxGeometry relative="1" as="geometry" />
        </mxCell>
        <mxCell id="uQRmSnmffVO2BU24MDGY-15" value="Set discount % to 0" style="rounded=0;whiteSpace=wrap;html=1;" parent="uQRmSnmffVO2BU24MDGY-1" vertex="1">
          <mxGeometry x="280" y="600" width="120" height="60" as="geometry" />
        </mxCell>
        <mxCell id="uQRmSnmffVO2BU24MDGY-16" style="edgeStyle=orthogonalEdgeStyle;rounded=0;orthogonalLoop=1;jettySize=auto;html=1;exitX=0.5;exitY=0;exitDx=0;exitDy=0;endArrow=none;endFill=0;" parent="uQRmSnmffVO2BU24MDGY-1" source="uQRmSnmffVO2BU24MDGY-17" edge="1">
          <mxGeometry relative="1" as="geometry">
            <mxPoint x="500.42857142857156" y="330" as="targetPoint" />
          </mxGeometry>
        </mxCell>
        <mxCell id="uQRmSnmffVO2BU24MDGY-17" value="Is&lt;br&gt;discount %&lt;br&gt;not equal to&lt;br&gt;zero?" style="rhombus;whiteSpace=wrap;html=1;" parent="uQRmSnmffVO2BU24MDGY-1" vertex="1">
          <mxGeometry x="440" y="360" width="120" height="80" as="geometry" />
        </mxCell>
        <mxCell id="uQRmSnmffVO2BU24MDGY-18" style="edgeStyle=orthogonalEdgeStyle;shape=connector;rounded=0;orthogonalLoop=1;jettySize=auto;html=1;exitX=0.5;exitY=0;exitDx=0;exitDy=0;entryX=0.5;entryY=1;entryDx=0;entryDy=0;labelBackgroundColor=default;strokeColor=default;fontFamily=Helvetica;fontSize=11;fontColor=default;endArrow=none;endFill=0;" parent="uQRmSnmffVO2BU24MDGY-1" source="uQRmSnmffVO2BU24MDGY-19" target="uQRmSnmffVO2BU24MDGY-17" edge="1">
          <mxGeometry relative="1" as="geometry" />
        </mxCell>
        <mxCell id="uQRmSnmffVO2BU24MDGY-19" value="Calculate discount:&lt;br&gt;total / 100 * discount" style="rounded=0;whiteSpace=wrap;html=1;" parent="uQRmSnmffVO2BU24MDGY-1" vertex="1">
          <mxGeometry x="440" y="483.5" width="120" height="60" as="geometry" />
        </mxCell>
        <mxCell id="uQRmSnmffVO2BU24MDGY-20" style="edgeStyle=orthogonalEdgeStyle;shape=connector;rounded=0;orthogonalLoop=1;jettySize=auto;html=1;exitX=0.5;exitY=0;exitDx=0;exitDy=0;entryX=0.5;entryY=1;entryDx=0;entryDy=0;labelBackgroundColor=default;strokeColor=default;fontFamily=Helvetica;fontSize=11;fontColor=default;endArrow=none;endFill=0;" parent="uQRmSnmffVO2BU24MDGY-1" source="uQRmSnmffVO2BU24MDGY-21" target="uQRmSnmffVO2BU24MDGY-19" edge="1">
          <mxGeometry relative="1" as="geometry" />
        </mxCell>
        <mxCell id="uQRmSnmffVO2BU24MDGY-21" value="Update total:&lt;br&gt;total - discount" style="rounded=0;whiteSpace=wrap;html=1;" parent="uQRmSnmffVO2BU24MDGY-1" vertex="1">
          <mxGeometry x="440" y="600" width="120" height="60" as="geometry" />
        </mxCell>
        <mxCell id="uQRmSnmffVO2BU24MDGY-22" style="edgeStyle=orthogonalEdgeStyle;shape=connector;rounded=0;orthogonalLoop=1;jettySize=auto;html=1;exitX=0.5;exitY=0;exitDx=0;exitDy=0;entryX=0.5;entryY=1;entryDx=0;entryDy=0;labelBackgroundColor=default;strokeColor=default;fontFamily=Helvetica;fontSize=11;fontColor=default;endArrow=none;endFill=0;" parent="uQRmSnmffVO2BU24MDGY-1" source="uQRmSnmffVO2BU24MDGY-23" target="uQRmSnmffVO2BU24MDGY-13" edge="1">
          <mxGeometry relative="1" as="geometry" />
        </mxCell>
        <mxCell id="uQRmSnmffVO2BU24MDGY-23" value="Display error message" style="rounded=0;whiteSpace=wrap;html=1;" parent="uQRmSnmffVO2BU24MDGY-1" vertex="1">
          <mxGeometry x="280" y="483.5" width="120" height="60" as="geometry" />
        </mxCell>
        <mxCell id="uQRmSnmffVO2BU24MDGY-24" style="edgeStyle=orthogonalEdgeStyle;rounded=0;orthogonalLoop=1;jettySize=auto;html=1;exitX=0.5;exitY=0;exitDx=0;exitDy=0;endArrow=none;endFill=0;" parent="uQRmSnmffVO2BU24MDGY-1" source="uQRmSnmffVO2BU24MDGY-25" edge="1">
          <mxGeometry relative="1" as="geometry">
            <mxPoint x="820.4285714285716" y="210" as="targetPoint" />
          </mxGeometry>
        </mxCell>
        <mxCell id="uQRmSnmffVO2BU24MDGY-25" value="Get answer to &quot;Voucher?&quot;" style="rounded=0;whiteSpace=wrap;html=1;" parent="uQRmSnmffVO2BU24MDGY-1" vertex="1">
          <mxGeometry x="760" y="250" width="120" height="60" as="geometry" />
        </mxCell>
        <mxCell id="uQRmSnmffVO2BU24MDGY-26" style="edgeStyle=orthogonalEdgeStyle;rounded=0;orthogonalLoop=1;jettySize=auto;html=1;exitX=0.5;exitY=0;exitDx=0;exitDy=0;endArrow=none;endFill=0;" parent="uQRmSnmffVO2BU24MDGY-1" source="uQRmSnmffVO2BU24MDGY-27" edge="1">
          <mxGeometry relative="1" as="geometry">
            <mxPoint x="660.4285714285716" y="330" as="targetPoint" />
          </mxGeometry>
        </mxCell>
        <mxCell id="uQRmSnmffVO2BU24MDGY-27" value="Is&lt;br&gt;answer&lt;br&gt;&quot;yes&quot;?" style="rhombus;whiteSpace=wrap;html=1;" parent="uQRmSnmffVO2BU24MDGY-1" vertex="1">
          <mxGeometry x="600" y="360" width="120" height="80" as="geometry" />
        </mxCell>
        <mxCell id="uQRmSnmffVO2BU24MDGY-28" style="edgeStyle=orthogonalEdgeStyle;shape=connector;rounded=0;orthogonalLoop=1;jettySize=auto;html=1;exitX=0.5;exitY=0;exitDx=0;exitDy=0;entryX=0.5;entryY=1;entryDx=0;entryDy=0;labelBackgroundColor=default;strokeColor=default;fontFamily=Helvetica;fontSize=11;fontColor=default;endArrow=none;endFill=0;" parent="uQRmSnmffVO2BU24MDGY-1" source="uQRmSnmffVO2BU24MDGY-29" target="uQRmSnmffVO2BU24MDGY-27" edge="1">
          <mxGeometry relative="1" as="geometry" />
        </mxCell>
        <mxCell id="uQRmSnmffVO2BU24MDGY-29" value="Get voucher amount" style="rounded=0;whiteSpace=wrap;html=1;" parent="uQRmSnmffVO2BU24MDGY-1" vertex="1">
          <mxGeometry x="600" y="483.5" width="120" height="60" as="geometry" />
        </mxCell>
        <mxCell id="uQRmSnmffVO2BU24MDGY-30" style="edgeStyle=orthogonalEdgeStyle;rounded=0;orthogonalLoop=1;jettySize=auto;html=1;exitX=0.5;exitY=0;exitDx=0;exitDy=0;entryX=0.5;entryY=1;entryDx=0;entryDy=0;endArrow=none;endFill=0;" parent="uQRmSnmffVO2BU24MDGY-1" source="uQRmSnmffVO2BU24MDGY-31" target="uQRmSnmffVO2BU24MDGY-25" edge="1">
          <mxGeometry relative="1" as="geometry" />
        </mxCell>
        <mxCell id="uQRmSnmffVO2BU24MDGY-31" value="Is&lt;br&gt;voucher&lt;br&gt;&amp;gt; total?" style="rhombus;whiteSpace=wrap;html=1;" parent="uQRmSnmffVO2BU24MDGY-1" vertex="1">
          <mxGeometry x="760" y="360" width="120" height="80" as="geometry" />
        </mxCell>
        <mxCell id="uQRmSnmffVO2BU24MDGY-32" style="edgeStyle=orthogonalEdgeStyle;shape=connector;rounded=0;orthogonalLoop=1;jettySize=auto;html=1;exitX=0.5;exitY=0;exitDx=0;exitDy=0;entryX=0.5;entryY=1;entryDx=0;entryDy=0;labelBackgroundColor=default;strokeColor=default;fontFamily=Helvetica;fontSize=11;fontColor=default;endArrow=none;endFill=0;" parent="uQRmSnmffVO2BU24MDGY-1" source="uQRmSnmffVO2BU24MDGY-33" target="uQRmSnmffVO2BU24MDGY-39" edge="1">
          <mxGeometry relative="1" as="geometry" />
        </mxCell>
        <mxCell id="uQRmSnmffVO2BU24MDGY-33" value="Set voucher&lt;br&gt;amount to 0" style="rounded=0;whiteSpace=wrap;html=1;" parent="uQRmSnmffVO2BU24MDGY-1" vertex="1">
          <mxGeometry x="760" y="600" width="120" height="60" as="geometry" />
        </mxCell>
        <mxCell id="uQRmSnmffVO2BU24MDGY-34" style="edgeStyle=orthogonalEdgeStyle;rounded=0;orthogonalLoop=1;jettySize=auto;html=1;exitX=0.5;exitY=0;exitDx=0;exitDy=0;endArrow=none;endFill=0;" parent="uQRmSnmffVO2BU24MDGY-1" source="uQRmSnmffVO2BU24MDGY-35" edge="1">
          <mxGeometry relative="1" as="geometry">
            <mxPoint x="980.4285714285716" y="330" as="targetPoint" />
          </mxGeometry>
        </mxCell>
        <mxCell id="uQRmSnmffVO2BU24MDGY-35" value="Is&lt;br&gt;voucher not&lt;br&gt;equal to&lt;br&gt;zero?" style="rhombus;whiteSpace=wrap;html=1;" parent="uQRmSnmffVO2BU24MDGY-1" vertex="1">
          <mxGeometry x="920" y="360" width="120" height="80" as="geometry" />
        </mxCell>
        <mxCell id="uQRmSnmffVO2BU24MDGY-36" style="edgeStyle=orthogonalEdgeStyle;shape=connector;rounded=0;orthogonalLoop=1;jettySize=auto;html=1;exitX=0.5;exitY=0;exitDx=0;exitDy=0;entryX=0.5;entryY=1;entryDx=0;entryDy=0;labelBackgroundColor=default;strokeColor=default;fontFamily=Helvetica;fontSize=11;fontColor=default;endArrow=none;endFill=0;" parent="uQRmSnmffVO2BU24MDGY-1" source="uQRmSnmffVO2BU24MDGY-37" target="uQRmSnmffVO2BU24MDGY-35" edge="1">
          <mxGeometry relative="1" as="geometry" />
        </mxCell>
        <mxCell id="uQRmSnmffVO2BU24MDGY-37" value="Update total:&lt;br style=&quot;border-color: var(--border-color);&quot;&gt;total - voucher" style="rounded=0;whiteSpace=wrap;html=1;" parent="uQRmSnmffVO2BU24MDGY-1" vertex="1">
          <mxGeometry x="920" y="483.5" width="120" height="60" as="geometry" />
        </mxCell>
        <mxCell id="uQRmSnmffVO2BU24MDGY-38" style="edgeStyle=orthogonalEdgeStyle;shape=connector;rounded=0;orthogonalLoop=1;jettySize=auto;html=1;exitX=0.5;exitY=0;exitDx=0;exitDy=0;entryX=0.5;entryY=1;entryDx=0;entryDy=0;labelBackgroundColor=default;strokeColor=default;fontFamily=Helvetica;fontSize=11;fontColor=default;endArrow=none;endFill=0;" parent="uQRmSnmffVO2BU24MDGY-1" source="uQRmSnmffVO2BU24MDGY-39" target="uQRmSnmffVO2BU24MDGY-31" edge="1">
          <mxGeometry relative="1" as="geometry" />
        </mxCell>
        <mxCell id="uQRmSnmffVO2BU24MDGY-39" value="Display error message" style="rounded=0;whiteSpace=wrap;html=1;" parent="uQRmSnmffVO2BU24MDGY-1" vertex="1">
          <mxGeometry x="760" y="483.5" width="120" height="60" as="geometry" />
        </mxCell>
        <mxCell id="uQRmSnmffVO2BU24MDGY-40" style="edgeStyle=orthogonalEdgeStyle;rounded=0;orthogonalLoop=1;jettySize=auto;html=1;exitX=0.5;exitY=0;exitDx=0;exitDy=0;endArrow=none;endFill=0;" parent="uQRmSnmffVO2BU24MDGY-1" source="uQRmSnmffVO2BU24MDGY-41" edge="1">
          <mxGeometry relative="1" as="geometry">
            <mxPoint x="980.4285714285716" y="210" as="targetPoint" />
          </mxGeometry>
        </mxCell>
        <mxCell id="uQRmSnmffVO2BU24MDGY-41" value="Display final amount to pay" style="rounded=0;whiteSpace=wrap;html=1;" parent="uQRmSnmffVO2BU24MDGY-1" vertex="1">
          <mxGeometry x="920" y="250" width="120" height="60" as="geometry" />
        </mxCell>
        <mxCell id="uQRmSnmffVO2BU24MDGY-42" style="edgeStyle=orthogonalEdgeStyle;rounded=0;orthogonalLoop=1;jettySize=auto;html=1;exitX=0.5;exitY=0;exitDx=0;exitDy=0;endArrow=none;endFill=0;" parent="uQRmSnmffVO2BU24MDGY-1" source="uQRmSnmffVO2BU24MDGY-43" edge="1">
          <mxGeometry relative="1" as="geometry">
            <mxPoint x="660.4285714285716" y="210" as="targetPoint" />
          </mxGeometry>
        </mxCell>
        <mxCell id="uQRmSnmffVO2BU24MDGY-43" value="Display amount&lt;br&gt;to pay" style="rounded=0;whiteSpace=wrap;html=1;" parent="uQRmSnmffVO2BU24MDGY-1" vertex="1">
          <mxGeometry x="600" y="250" width="120" height="60" as="geometry" />
        </mxCell>
        <mxCell id="uQRmSnmffVO2BU24MDGY-44" value="" style="endArrow=none;html=1;rounded=0;" parent="uQRmSnmffVO2BU24MDGY-1" edge="1">
          <mxGeometry width="50" height="50" relative="1" as="geometry">
            <mxPoint x="180" y="210" as="sourcePoint" />
            <mxPoint x="980" y="210" as="targetPoint" />
          </mxGeometry>
        </mxCell>
        <mxCell id="uQRmSnmffVO2BU24MDGY-45" value="" style="endArrow=none;html=1;rounded=0;" parent="uQRmSnmffVO2BU24MDGY-1" edge="1">
          <mxGeometry width="50" height="50" relative="1" as="geometry">
            <mxPoint x="180" y="330" as="sourcePoint" />
            <mxPoint x="500" y="330" as="targetPoint" />
          </mxGeometry>
        </mxCell>
        <mxCell id="uQRmSnmffVO2BU24MDGY-46" value="" style="endArrow=none;html=1;rounded=0;" parent="uQRmSnmffVO2BU24MDGY-1" edge="1">
          <mxGeometry width="50" height="50" relative="1" as="geometry">
            <mxPoint x="660" y="330" as="sourcePoint" />
            <mxPoint x="980" y="330" as="targetPoint" />
          </mxGeometry>
        </mxCell>
        <mxCell id="uQRmSnmffVO2BU24MDGY-47" value="Yes" style="text;html=1;strokeColor=none;fillColor=none;align=right;verticalAlign=middle;whiteSpace=wrap;rounded=0;fontSize=11;fontFamily=Helvetica;fontColor=default;spacing=2;spacingRight=3;" parent="uQRmSnmffVO2BU24MDGY-1" vertex="1">
          <mxGeometry x="280" y="440" width="60" height="30" as="geometry" />
        </mxCell>
        <mxCell id="uQRmSnmffVO2BU24MDGY-48" value="Yes" style="text;html=1;strokeColor=none;fillColor=none;align=right;verticalAlign=middle;whiteSpace=wrap;rounded=0;fontSize=11;fontFamily=Helvetica;fontColor=default;spacing=2;spacingRight=3;" parent="uQRmSnmffVO2BU24MDGY-1" vertex="1">
          <mxGeometry x="120" y="440" width="60" height="30" as="geometry" />
        </mxCell>
        <mxCell id="uQRmSnmffVO2BU24MDGY-49" value="Yes" style="text;html=1;strokeColor=none;fillColor=none;align=right;verticalAlign=middle;whiteSpace=wrap;rounded=0;fontSize=11;fontFamily=Helvetica;fontColor=default;spacing=2;spacingRight=3;" parent="uQRmSnmffVO2BU24MDGY-1" vertex="1">
          <mxGeometry x="440" y="440" width="60" height="30" as="geometry" />
        </mxCell>
        <mxCell id="uQRmSnmffVO2BU24MDGY-50" value="Yes" style="text;html=1;strokeColor=none;fillColor=none;align=right;verticalAlign=middle;whiteSpace=wrap;rounded=0;fontSize=11;fontFamily=Helvetica;fontColor=default;spacing=2;spacingRight=3;" parent="uQRmSnmffVO2BU24MDGY-1" vertex="1">
          <mxGeometry x="600" y="440" width="60" height="30" as="geometry" />
        </mxCell>
        <mxCell id="uQRmSnmffVO2BU24MDGY-51" value="Yes" style="text;html=1;strokeColor=none;fillColor=none;align=right;verticalAlign=middle;whiteSpace=wrap;rounded=0;fontSize=11;fontFamily=Helvetica;fontColor=default;spacing=2;spacingRight=3;" parent="uQRmSnmffVO2BU24MDGY-1" vertex="1">
          <mxGeometry x="760" y="440" width="60" height="30" as="geometry" />
        </mxCell>
        <mxCell id="uQRmSnmffVO2BU24MDGY-52" value="Yes" style="text;html=1;strokeColor=none;fillColor=none;align=right;verticalAlign=middle;whiteSpace=wrap;rounded=0;fontSize=11;fontFamily=Helvetica;fontColor=default;spacing=2;spacingRight=3;" parent="uQRmSnmffVO2BU24MDGY-1" vertex="1">
          <mxGeometry x="920" y="440" width="60" height="30" as="geometry" />
        </mxCell>
      </root>
    </mxGraphModel>
  </diagram>
</mxfile>
